{"title":"Ghanchakkar [2013] - DVDRip - 720p - x264 - AC3 - E-Sub - [Team ","uid":8814907,"size":2251118047,"categoryP":"video","categoryS":"hd___movies","magnet":"?xt=urn:btih:31a043669d64fd2961af43260694fbfa546d6370&amp;dn=Ghanchakkar+%5B2013%5D+-+DVDRip+-+720p+-+x264+-+AC3+-+E-Sub+-+%5BTeam+&amp;tr=udp%3A%2F%2Ftracker.openbittorrent.com%3A80&amp;tr=udp%3A%2F%2Fopen.demonii.com%3A1337&amp;tr=udp%3A%2F%2Ftracker.coppersurfer.tk%3A6969&amp;tr=udp%3A%2F%2Fexodus.desync.com%3A6969","seeders":0,"leechers":4,"uploader":"[HP]","files":6,"time":1376556344,"description":" &lt;a href=&quot;http://tellypics.com/images/2013/08/15/HqW8vAfXJ.jpg&quot; rel=&quot;nofollow&quot; target=&quot;_NEW&quot;&gt;http://tellypics.com/images/2013/08/15/HqW8vAfXJ.jpg&lt;/a&gt;\n\nInfo\n\nComplete name                            : Ghanchakkar [2013] - seTul34.mkv\nFormat                                   : Matroska\nFile size                                : 2.08 GiB\nDuration                                 : 2h 15mn\nOverall bit rate                         : 2 205 Kbps\n\nVideo\nID                                       : 1\nFormat                                   : AVC\nFormat/Info                              : Advanced Video Codec\nCodec ID                                 : V_MPEG4/ISO/AVC\nDuration                                 : 2h 15mn\nBit rate                                 : 2 033 Kbps\nWidth                                    : 1 280 pixels\nHeight                                   : 544 pixels\nDisplay aspect ratio                     : 2.35:1\nFrame rate mode                          : Constant\nFrame rate                               : 25.000 fps\nStream size                              : 1.92 GiB (92%)\n\nAudio\nID                                       : 2\nFormat                                   : AC-3\nFormat/Info                              : Audio Coding 3\nCodec ID                                 : A_AC3\nDuration                                 : 2h 15mn\nBit rate mode                            : Constant\nBit rate                                 : 128 Kbps\nChannel(s)                               : 2 channels\nSampling rate                            : 44.1 KHz\nStream size                              : 124 MiB (6%)\n &lt;a href=&quot;\nhttp://www.tellypics.com/images/2013/08/15/8oms1rxN.png&quot; rel=&quot;nofollow&quot; target=&quot;_NEW&quot;&gt;\nhttp://www.tellypics.com/images/2013/08/15/8oms1rxN.png&lt;/a&gt;\n &lt;a href=&quot;\nhttp://www.tellypics.com/images/2013/08/15/IdyRJEMxp.png&quot; rel=&quot;nofollow&quot; target=&quot;_NEW&quot;&gt;\nhttp://www.tellypics.com/images/2013/08/15/IdyRJEMxp.png&lt;/a&gt;\n &lt;a href=&quot;\nhttp://www.tellypics.com/images/2013/08/15/1wmY3X.png&quot; rel=&quot;nofollow&quot; target=&quot;_NEW&quot;&gt;\nhttp://www.tellypics.com/images/2013/08/15/1wmY3X.png&lt;/a&gt;","torrent":{"xt":"urn:btih:31a043669d64fd2961af43260694fbfa546d6370","amp;dn":"Ghanchakkar+%5B2013%5D+-+DVDRip+-+720p+-+x264+-+AC3+-+E-Sub+-+%5BTeam+","amp;tr":["udp%3A%2F%2Ftracker.openbittorrent.com%3A80","udp%3A%2F%2Fopen.demonii.com%3A1337","udp%3A%2F%2Ftracker.coppersurfer.tk%3A6969","udp%3A%2F%2Fexodus.desync.com%3A6969"],"infoHash":"31a043669d64fd2961af43260694fbfa546d6370","infoHashBuffer":{"type":"Buffer","data":[49,160,67,102,157,100,253,41,97,175,67,38,6,148,251,250,84,109,99,112]},"announce":[],"urlList":[]}}